<?xml version="1.0" encoding="UTF-8"?>
<svg width="631px" height="293px" viewBox="0 0 631 293" version="1.1" xmlns="http://www.w3.org/2000/svg" xmlns:xlink="http://www.w3.org/1999/xlink">
    <!-- Generator: sketchtool 57.1 (101010) - https://sketch.com -->
    <title>72C30CDA-0643-4528-9DAF-9B4502C3F06E</title>
    <desc>Created with sketchtool.</desc>
    <defs>
        <filter x="-5.0%" y="-12.7%" width="109.9%" height="125.4%" filterUnits="objectBoundingBox" id="filter-1">
            <feGaussianBlur stdDeviation="10" in="SourceGraphic"></feGaussianBlur>
        </filter>
    </defs>
    <g id="Page-1" stroke="none" stroke-width="1" fill="none" fill-rule="evenodd">
        <g id="18450---Talent-Mgmt-As---Create-Assessment" transform="translate(0.000000, -36.000000)">
            <g id="Bg">
                <g id="Bg---Left---Decor" transform="translate(315.500000, 195.000000) scale(-1, -1) translate(-315.500000, -195.000000) translate(0.000000, 61.000000)">
                    <path d="M631,0 C631,0 631,89.1015912 631,267.304774 C210.333333,267.304774 0,267.535308 0,267.996377 C115.491984,89.3321258 325.825317,0 631,0 Z" id="Rectangle" fill="#EBEBEB"></path>
                    <path d="M631,32 C631,32 631,110.462595 631,267.387786 C228.333333,267.387786 27,267.590794 27,267.99681 C27,267.387786 227.429245,32 631,32 Z" id="Rectangle" fill="#E0E0E0" filter="url(#filter-1)"></path>
                    <path d="M631,53 C631,53 631,124.473836 631,267.421509 C251,267.421509 61,267.613901 61,267.998684 C186.638811,124.666228 376.638811,53 631,53 Z" id="Rectangle" fill="#EBEBEB"></path>
                </g>
            </g>
        </g>
    </g>
</svg>