<?xml version="1.0" encoding="UTF-8"?>
<svg width="1004px" height="268px" viewBox="0 0 1004 268" version="1.1" xmlns="http://www.w3.org/2000/svg" xmlns:xlink="http://www.w3.org/1999/xlink">
    <!-- Generator: sketchtool 57.1 (101010) - https://sketch.com -->
    <title>1E2563CE-9C27-4A37-8D0D-4CC1766E8D56</title>
    <desc>Created with sketchtool.</desc>
    <defs>
        <filter x="-3.3%" y="-12.7%" width="106.6%" height="125.4%" filterUnits="objectBoundingBox" id="filter-1">
            <feGaussianBlur stdDeviation="10" in="SourceGraphic"></feGaussianBlur>
        </filter>
    </defs>
    <g id="Page-1" stroke="none" stroke-width="1" fill="none" fill-rule="evenodd">
        <g id="18450---Talent-Mgmt-As---Create-Assessment" transform="translate(-436.000000, -724.000000)">
            <g id="Bg">
                <g id="Bg---Right---Decor" transform="translate(436.000000, 724.000000)">
                    <path d="M1039,0 C1039,0 1039,89.1015912 1039,267.304774 C346.333333,267.304774 0,267.535308 0,267.996377 C581.237975,269.138173 581.237975,0 1039,0 Z" id="Rectangle" fill="#F7F7F7" opacity="0.356491815"></path>
                    <path d="M1039,32 C1039,32 1039,110.462595 1039,267.387786 C428.333333,267.387786 123,267.590794 123,267.99681 C635.429245,269.002272 635.429245,32 1039,32 Z" id="Rectangle" fill="#E0E0E0" filter="url(#filter-1)"></path>
                    <path d="M1039,45 C1039,45 1039,119.140503 1039,267.421509 C461.666667,267.421509 173,267.613335 173,267.996986 C657.458216,268.947062 657.458216,45 1039,45 Z" id="Rectangle" fill="#EBEBEB"></path>
                </g>
            </g>
        </g>
    </g>
</svg>